<?xml version="1.0" standalone="no"?>
<!DOCTYPE svg PUBLIC "-//W3C//DTD SVG 20010904//EN"
 "http://www.w3.org/TR/2001/REC-SVG-20010904/DTD/svg10.dtd">
<svg version="1.0" xmlns="http://www.w3.org/2000/svg"
 width="400.000000pt" height="400.000000pt" viewBox="0 0 400.000000 400.000000"
 preserveAspectRatio="xMidYMid meet">

<g transform="translate(0.000000,400.000000) scale(0.100000,-0.100000)"
fill="#000000" stroke="none">
<path d="M695 3731 c-16 -10 -123 -113 -237 -228 l-208 -209 0 -48 c0 -26 6
-59 14 -74 8 -15 256 -268 550 -562 380 -379 539 -545 547 -568 27 -81 43 -62
-552 -657 -376 -377 -552 -560 -558 -580 -21 -74 -13 -85 217 -317 149 -150
226 -221 249 -229 82 -27 62 -44 664 557 l555 554 59 0 59 0 556 -554 c588
-586 576 -577 653 -561 47 10 463 425 477 476 20 74 25 68 -559 654 -511 512
-549 553 -556 591 -4 28 -1 53 8 75 9 21 228 247 556 574 371 370 544 550 552
572 22 68 6 92 -223 319 -117 117 -223 217 -235 223 -30 15 -79 14 -111 -3
-15 -8 -265 -254 -557 -546 -291 -292 -542 -538 -557 -546 -45 -23 -100 -18
-144 15 -21 16 -271 261 -554 546 -283 284 -527 523 -542 531 -37 19 -87 18
-123 -5z"/>
</g>
</svg>
